<svg width="520" height="520" viewBox="0 0 520 520" fill="none" xmlns="http://www.w3.org/2000/svg">
<path d="M433.333 130H386.1C388.483 123.283 390 115.917 390 108.333C390 72.3667 360.967 43.3333 325 43.3333C302.25 43.3333 282.533 55.0333 270.833 72.5833L260 87.1L249.167 72.3667C237.467 55.0333 217.75 43.3333 195 43.3333C159.033 43.3333 130 72.3667 130 108.333C130 115.917 131.517 123.283 133.9 130H86.6667C62.6167 130 43.55 149.283 43.55 173.333L43.3333 411.667C43.3333 435.717 62.6167 455 86.6667 455H433.333C457.383 455 476.667 435.717 476.667 411.667V173.333C476.667 149.283 457.383 130 433.333 130ZM325 86.6667C336.917 86.6667 346.667 96.4167 346.667 108.333C346.667 120.25 336.917 130 325 130C313.083 130 303.333 120.25 303.333 108.333C303.333 96.4167 313.083 86.6667 325 86.6667ZM195 86.6667C206.917 86.6667 216.667 96.4167 216.667 108.333C216.667 120.25 206.917 130 195 130C183.083 130 173.333 120.25 173.333 108.333C173.333 96.4167 183.083 86.6667 195 86.6667ZM433.333 411.667H86.6667V368.333H433.333V411.667ZM433.333 303.333H86.6667V173.333H196.733L151.667 234.65L186.767 260L238.333 189.8L260 160.333L281.667 189.8L333.233 260L368.333 234.65L323.267 173.333H433.333V303.333Z" fill="#A66BFF"/>
</svg>
