<?xml version="1.0" standalone="no"?>
<!DOCTYPE svg PUBLIC "-//W3C//DTD SVG 20010904//EN"
 "http://www.w3.org/TR/2001/REC-SVG-20010904/DTD/svg10.dtd">
<svg version="1.0" xmlns="http://www.w3.org/2000/svg"
 width="700.000000pt" height="700.000000pt" viewBox="0 0 700.000000 700.000000"
 preserveAspectRatio="xMidYMid meet">
<metadata>
Created by potrace 1.14, written by Peter Selinger 2001-2017
</metadata>
<g transform="translate(0.000000,700.000000) scale(0.100000,-0.100000)"
fill="#000000" stroke="none">
<path d="M2511 6410 c-129 -18 -278 -76 -388 -151 -74 -51 -175 -156 -231
-242 -144 -220 -177 -483 -96 -749 5 -17 -16 -18 -344 -18 -390 0 -441 -6
-565 -72 -84 -45 -183 -146 -229 -234 -71 -134 -66 -18 -70 -1889 -3 -1617 -2
-1693 15 -1750 58 -189 194 -333 373 -396 32 -12 102 -25 154 -30 57 -6 1028
-8 2445 -7 2230 3 2353 5 2409 22 205 62 349 206 413 412 17 56 18 138 18
1749 0 1858 4 1735 -63 1875 -45 93 -148 200 -239 248 -124 66 -175 72 -565
72 -328 0 -349 1 -344 18 81 266 48 529 -96 749 -145 222 -371 361 -641 394
-250 30 -523 -66 -706 -250 -31 -31 -101 -118 -156 -194 -55 -75 -102 -136
-105 -136 -3 0 -41 50 -85 111 -44 61 -100 136 -124 166 -98 121 -289 240
-452 281 -93 24 -241 33 -328 21z m244 -607 c211 -110 211 -411 1 -521 -69
-36 -189 -38 -253 -4 -66 35 -110 78 -140 139 -76 156 9 349 177 404 45 15
171 4 215 -18z m1750 0 c211 -110 211 -411 1 -521 -69 -36 -189 -38 -253 -4
-66 35 -110 78 -140 139 -76 156 9 349 177 404 45 15 171 4 215 -18z m-510
-1633 c269 -368 494 -666 500 -662 5 3 112 80 237 170 l227 163 -281 382
c-155 210 -289 393 -299 406 -11 13 -19 28 -19 32 0 5 328 9 735 9 l735 0 0
-875 0 -875 -2330 0 -2330 0 0 875 0 875 735 0 c407 0 735 -4 735 -9 0 -4 -8
-19 -19 -32 -10 -13 -144 -196 -299 -406 l-280 -381 226 -164 c124 -89 230
-166 236 -170 7 -4 207 260 501 662 270 368 492 669 495 669 3 0 225 -301 495
-669z m1835 -2420 l0 -290 -2330 0 -2330 0 0 290 0 290 2330 0 2330 0 0 -290z"/>
</g>
</svg>
